<svg xmlns="http://www.w3.org/2000/svg" viewBox="0 0 512 512" style="enable-background:new 0 0 512 512">
  <style>
    .st0{fill:#FFCC00}
    .st1{fill:#000}
  </style>
  <path class="st0" d="M256 0C114.6 0 0 114.6 0 256s114.6 256 256 256 256-114.6 256-256S397.4 0 256 0zm0 482C132.5 482 30 379.5 30 256S132.5 30 256 30s226 102.5 226 226-102.5 226-226 226z"/>
  <path class="st1" d="M256 128c-70.7 0-128 57.3-128 128s57.3 128 128 128 128-57.3 128-128-57.3-128-128-128zm0 236c-59.6 0-108-48.4-108-108s48.4-108 108-108 108 48.4 108 108-48.4 108-108 108z"/>
  <path class="st0" d="M256 172c-46.4 0-84 37.6-84 84s37.6 84 84 84 84-37.6 84-84-37.6-84-84-84zm0 148c-35.3 0-64-28.7-64-64s28.7-64 64-64 64 28.7 64 64-28.7 64-64 64z"/>
  <path class="st1" d="M256 204c-28.7 0-52 23.3-52 52s23.3 52 52 52 52-23.3 52-52-23.3-52-52-52zm0 84c-17.6 0-32-14.4-32-32s14.4-32 32-32 32 14.4 32 32-14.4 32-32 32z"/>
  <path class="st0" d="M316 256c0 33.1-26.9 60-60 60s-60-26.9-60-60 26.9-60 60-60 60 26.9 60 60z"/>
</svg>